<svg width="115" height="115" viewBox="0 0 115 115" fill="none" xmlns="http://www.w3.org/2000/svg">
<mask id="path-1-inside-1_128_710" fill="white">
<path d="M29.0625 11C24.5372 11 20.1973 12.8174 16.9975 16.0524C13.7977 19.2874 12 23.675 12 28.25V74.25C12 78.825 13.7977 83.2126 16.9975 86.4476C20.1973 89.6826 24.5372 91.5 29.0625 91.5H49.5375C48.6086 89.6617 47.86 87.7358 47.3023 85.75H29.0625C26.0457 85.75 23.1524 84.5384 21.0192 82.3817C18.8859 80.2251 17.6875 77.3 17.6875 74.25V28.25C17.6875 25.2 18.8859 22.2749 21.0192 20.1183C23.1524 17.9616 26.0457 16.75 29.0625 16.75H74.5625C77.5793 16.75 80.4726 17.9616 82.6058 20.1183C84.7391 22.2749 85.9375 25.2 85.9375 28.25V46.6903C87.9243 47.2614 89.8202 48.0147 91.625 48.95V28.25C91.625 23.675 89.8273 19.2874 86.6275 16.0524C83.4277 12.8174 79.0878 11 74.5625 11H29.0625ZM48.9688 51.25H59.4167C64.507 47.6275 70.7121 45.5 77.4062 45.5H48.9688C48.2145 45.5 47.4912 45.8029 46.9579 46.3421C46.4246 46.8812 46.125 47.6125 46.125 48.375C46.125 49.1375 46.4246 49.8688 46.9579 50.4079C47.4912 50.9471 48.2145 51.25 48.9688 51.25ZM26.2188 22.5C25.4645 22.5 24.7412 22.8029 24.2079 23.3421C23.6746 23.8812 23.375 24.6125 23.375 25.375C23.375 26.1375 23.6746 26.8688 24.2079 27.4079C24.7412 27.9471 25.4645 28.25 26.2188 28.25H77.4062C78.1605 28.25 78.8838 27.9471 79.4171 27.4079C79.9504 26.8688 80.25 26.1375 80.25 25.375C80.25 24.6125 79.9504 23.8812 79.4171 23.3421C78.8838 22.8029 78.1605 22.5 77.4062 22.5H26.2188ZM31.9062 57C34.1689 57 36.3388 56.0913 37.9388 54.4738C39.5387 52.8563 40.4375 50.6625 40.4375 48.375C40.4375 46.0875 39.5387 43.8937 37.9388 42.2762C36.3388 40.6587 34.1689 39.75 31.9062 39.75C29.6436 39.75 27.4737 40.6587 25.8737 42.2762C24.2738 43.8937 23.375 46.0875 23.375 48.375C23.375 50.6625 24.2738 52.8563 25.8737 54.4738C27.4737 56.0913 29.6436 57 31.9062 57ZM31.9062 51.25C31.152 51.25 30.4287 50.9471 29.8954 50.4079C29.3621 49.8688 29.0625 49.1375 29.0625 48.375C29.0625 47.6125 29.3621 46.8812 29.8954 46.3421C30.4287 45.8029 31.152 45.5 31.9062 45.5C32.6605 45.5 33.3838 45.8029 33.9171 46.3421C34.4504 46.8812 34.75 47.6125 34.75 48.375C34.75 49.1375 34.4504 49.8688 33.9171 50.4079C33.3838 50.9471 32.6605 51.25 31.9062 51.25ZM31.9062 80C34.1689 80 36.3388 79.0913 37.9388 77.4738C39.5387 75.8563 40.4375 73.6625 40.4375 71.375C40.4375 69.0875 39.5387 66.8937 37.9388 65.2762C36.3388 63.6587 34.1689 62.75 31.9062 62.75C29.6436 62.75 27.4737 63.6587 25.8737 65.2762C24.2738 66.8937 23.375 69.0875 23.375 71.375C23.375 73.6625 24.2738 75.8563 25.8737 77.4738C27.4737 79.0913 29.6436 80 31.9062 80ZM31.9062 68.5C32.6605 68.5 33.3838 68.8029 33.9171 69.3421C34.4504 69.8812 34.75 70.6125 34.75 71.375C34.75 72.1375 34.4504 72.8688 33.9171 73.4079C33.3838 73.9471 32.6605 74.25 31.9062 74.25C31.152 74.25 30.4287 73.9471 29.8954 73.4079C29.3621 72.8688 29.0625 72.1375 29.0625 71.375C29.0625 70.6125 29.3621 69.8812 29.8954 69.3421C30.4287 68.8029 31.152 68.5 31.9062 68.5ZM103 77.125C103 83.9875 100.304 90.5689 95.5038 95.4214C90.704 100.274 84.1941 103 77.4062 103C70.6184 103 64.1085 100.274 59.3087 95.4214C54.509 90.5689 51.8125 83.9875 51.8125 77.125C51.8125 70.2625 54.509 63.6811 59.3087 58.8286C64.1085 53.9761 70.6184 51.25 77.4062 51.25C84.1941 51.25 90.704 53.9761 95.5038 58.8286C100.304 63.6811 103 70.2625 103 77.125ZM80.25 65.625C80.25 64.8625 79.9504 64.1312 79.4171 63.5921C78.8838 63.0529 78.1605 62.75 77.4062 62.75C76.652 62.75 75.9287 63.0529 75.3954 63.5921C74.8621 64.1312 74.5625 64.8625 74.5625 65.625V74.25H66.0312C65.277 74.25 64.5537 74.5529 64.0204 75.0921C63.4871 75.6312 63.1875 76.3625 63.1875 77.125C63.1875 77.8875 63.4871 78.6188 64.0204 79.1579C64.5537 79.6971 65.277 80 66.0312 80H74.5625V88.625C74.5625 89.3875 74.8621 90.1188 75.3954 90.6579C75.9287 91.1971 76.652 91.5 77.4062 91.5C78.1605 91.5 78.8838 91.1971 79.4171 90.6579C79.9504 90.1188 80.25 89.3875 80.25 88.625V80H88.7812C89.5355 80 90.2588 79.6971 90.7921 79.1579C91.3254 78.6188 91.625 77.8875 91.625 77.125C91.625 76.3625 91.3254 75.6312 90.7921 75.0921C90.2588 74.5529 89.5355 74.25 88.7812 74.25H80.25V65.625Z"/>
</mask>
<path d="M29.0625 11C24.5372 11 20.1973 12.8174 16.9975 16.0524C13.7977 19.2874 12 23.675 12 28.25V74.25C12 78.825 13.7977 83.2126 16.9975 86.4476C20.1973 89.6826 24.5372 91.5 29.0625 91.5H49.5375C48.6086 89.6617 47.86 87.7358 47.3023 85.75H29.0625C26.0457 85.75 23.1524 84.5384 21.0192 82.3817C18.8859 80.2251 17.6875 77.3 17.6875 74.25V28.25C17.6875 25.2 18.8859 22.2749 21.0192 20.1183C23.1524 17.9616 26.0457 16.75 29.0625 16.75H74.5625C77.5793 16.75 80.4726 17.9616 82.6058 20.1183C84.7391 22.2749 85.9375 25.2 85.9375 28.25V46.6903C87.9243 47.2614 89.8202 48.0147 91.625 48.95V28.25C91.625 23.675 89.8273 19.2874 86.6275 16.0524C83.4277 12.8174 79.0878 11 74.5625 11H29.0625ZM48.9688 51.25H59.4167C64.507 47.6275 70.7121 45.5 77.4062 45.5H48.9688C48.2145 45.5 47.4912 45.8029 46.9579 46.3421C46.4246 46.8812 46.125 47.6125 46.125 48.375C46.125 49.1375 46.4246 49.8688 46.9579 50.4079C47.4912 50.9471 48.2145 51.25 48.9688 51.25ZM26.2188 22.5C25.4645 22.5 24.7412 22.8029 24.2079 23.3421C23.6746 23.8812 23.375 24.6125 23.375 25.375C23.375 26.1375 23.6746 26.8688 24.2079 27.4079C24.7412 27.9471 25.4645 28.25 26.2188 28.25H77.4062C78.1605 28.25 78.8838 27.9471 79.4171 27.4079C79.9504 26.8688 80.25 26.1375 80.25 25.375C80.25 24.6125 79.9504 23.8812 79.4171 23.3421C78.8838 22.8029 78.1605 22.5 77.4062 22.5H26.2188ZM31.9062 57C34.1689 57 36.3388 56.0913 37.9388 54.4738C39.5387 52.8563 40.4375 50.6625 40.4375 48.375C40.4375 46.0875 39.5387 43.8937 37.9388 42.2762C36.3388 40.6587 34.1689 39.75 31.9062 39.75C29.6436 39.75 27.4737 40.6587 25.8737 42.2762C24.2738 43.8937 23.375 46.0875 23.375 48.375C23.375 50.6625 24.2738 52.8563 25.8737 54.4738C27.4737 56.0913 29.6436 57 31.9062 57ZM31.9062 51.25C31.152 51.25 30.4287 50.9471 29.8954 50.4079C29.3621 49.8688 29.0625 49.1375 29.0625 48.375C29.0625 47.6125 29.3621 46.8812 29.8954 46.3421C30.4287 45.8029 31.152 45.5 31.9062 45.5C32.6605 45.5 33.3838 45.8029 33.9171 46.3421C34.4504 46.8812 34.75 47.6125 34.75 48.375C34.75 49.1375 34.4504 49.8688 33.9171 50.4079C33.3838 50.9471 32.6605 51.25 31.9062 51.25ZM31.9062 80C34.1689 80 36.3388 79.0913 37.9388 77.4738C39.5387 75.8563 40.4375 73.6625 40.4375 71.375C40.4375 69.0875 39.5387 66.8937 37.9388 65.2762C36.3388 63.6587 34.1689 62.75 31.9062 62.75C29.6436 62.75 27.4737 63.6587 25.8737 65.2762C24.2738 66.8937 23.375 69.0875 23.375 71.375C23.375 73.6625 24.2738 75.8563 25.8737 77.4738C27.4737 79.0913 29.6436 80 31.9062 80ZM31.9062 68.5C32.6605 68.5 33.3838 68.8029 33.9171 69.3421C34.4504 69.8812 34.75 70.6125 34.75 71.375C34.75 72.1375 34.4504 72.8688 33.9171 73.4079C33.3838 73.9471 32.6605 74.25 31.9062 74.25C31.152 74.25 30.4287 73.9471 29.8954 73.4079C29.3621 72.8688 29.0625 72.1375 29.0625 71.375C29.0625 70.6125 29.3621 69.8812 29.8954 69.3421C30.4287 68.8029 31.152 68.5 31.9062 68.5ZM103 77.125C103 83.9875 100.304 90.5689 95.5038 95.4214C90.704 100.274 84.1941 103 77.4062 103C70.6184 103 64.1085 100.274 59.3087 95.4214C54.509 90.5689 51.8125 83.9875 51.8125 77.125C51.8125 70.2625 54.509 63.6811 59.3087 58.8286C64.1085 53.9761 70.6184 51.25 77.4062 51.25C84.1941 51.25 90.704 53.9761 95.5038 58.8286C100.304 63.6811 103 70.2625 103 77.125ZM80.25 65.625C80.25 64.8625 79.9504 64.1312 79.4171 63.5921C78.8838 63.0529 78.1605 62.75 77.4062 62.75C76.652 62.75 75.9287 63.0529 75.3954 63.5921C74.8621 64.1312 74.5625 64.8625 74.5625 65.625V74.25H66.0312C65.277 74.25 64.5537 74.5529 64.0204 75.0921C63.4871 75.6312 63.1875 76.3625 63.1875 77.125C63.1875 77.8875 63.4871 78.6188 64.0204 79.1579C64.5537 79.6971 65.277 80 66.0312 80H74.5625V88.625C74.5625 89.3875 74.8621 90.1188 75.3954 90.6579C75.9287 91.1971 76.652 91.5 77.4062 91.5C78.1605 91.5 78.8838 91.1971 79.4171 90.6579C79.9504 90.1188 80.25 89.3875 80.25 88.625V80H88.7812C89.5355 80 90.2588 79.6971 90.7921 79.1579C91.3254 78.6188 91.625 77.8875 91.625 77.125C91.625 76.3625 91.3254 75.6312 90.7921 75.0921C90.2588 74.5529 89.5355 74.25 88.7812 74.25H80.25V65.625Z" fill="#96C6E2" stroke="#96C6E2" stroke-width="10" mask="url(#path-1-inside-1_128_710)"/>
</svg>
