<svg width="92" height="92" viewBox="0 0 92 92" fill="none" xmlns="http://www.w3.org/2000/svg">
<path d="M8.49935 12.667C8.49935 10.3753 10.3743 8.50032 12.666 8.50032H20.9993V0.166992H12.666C5.74935 0.166992 0.166016 5.75032 0.166016 12.667V21.0003H8.49935V12.667ZM8.49935 79.3336V71.0003H0.166016V79.3336C0.166016 86.2503 5.74935 91.8336 12.666 91.8336H20.9993V83.5003H12.666C10.3743 83.5003 8.49935 81.6253 8.49935 79.3336ZM79.3327 0.166992H70.9993V8.50032H79.3327C81.6243 8.50032 83.4993 10.3753 83.4993 12.667V21.0003H91.8327V12.667C91.8327 5.75032 86.2493 0.166992 79.3327 0.166992ZM83.4993 79.3336C83.4993 81.6253 81.6243 83.5003 79.3327 83.5003H70.9993V91.8336H79.3327C86.2493 91.8336 91.8327 86.2503 91.8327 79.3336V71.0003H83.4993V79.3336ZM75.166 57.9586V34.042C75.166 31.042 73.5827 28.292 70.9993 26.8337L50.166 14.8337C48.8743 14.0837 47.4577 13.7087 45.9993 13.7087C44.541 13.7087 43.1243 14.0837 41.8327 14.8337L20.9993 26.792C18.416 28.292 16.8327 31.042 16.8327 34.042V57.9586C16.8327 60.9586 18.416 63.7087 20.9993 65.167L41.8327 77.167C43.1243 77.917 44.541 78.292 45.9993 78.292C47.4577 78.292 48.8743 77.917 50.166 77.167L70.9993 65.167C73.5827 63.7087 75.166 60.9586 75.166 57.9586ZM41.8327 67.542L25.166 57.9586V38.667L41.8327 48.3753V67.542ZM45.9993 41.167L29.4993 31.542L45.9993 22.042L62.4993 31.542L45.9993 41.167ZM66.8327 57.9586L50.166 67.542V48.3753L66.8327 38.667V57.9586Z" fill="#96C6E2"/>
</svg>
