<svg width="105" height="65" viewBox="0 0 105 65" fill="none" xmlns="http://www.w3.org/2000/svg">
<path d="M34.5 61.5C36.8869 61.5 39.1761 60.5518 40.864 58.864C42.5518 57.1761 43.5 54.8869 43.5 52.5C43.5 50.1131 42.5518 47.8239 40.864 46.136C39.1761 44.4482 36.8869 43.5 34.5 43.5C32.1131 43.5 29.8239 44.4482 28.136 46.136C26.4482 47.8239 25.5 50.1131 25.5 52.5C25.5 54.8869 26.4482 57.1761 28.136 58.864C29.8239 60.5518 32.1131 61.5 34.5 61.5ZM79.5 61.5C81.8869 61.5 84.1761 60.5518 85.864 58.864C87.5518 57.1761 88.5 54.8869 88.5 52.5C88.5 50.1131 87.5518 47.8239 85.864 46.136C84.1761 44.4482 81.8869 43.5 79.5 43.5C77.113 43.5 74.8239 44.4482 73.136 46.136C71.4482 47.8239 70.5 50.1131 70.5 52.5C70.5 54.8869 71.4482 57.1761 73.136 58.864C74.8239 60.5518 77.113 61.5 79.5 61.5Z" stroke="#96C6E2" stroke-width="6" stroke-miterlimit="1.5" stroke-linecap="round" stroke-linejoin="round"/>
<path d="M43.725 52.5H66V5.7C66 4.98391 65.7155 4.29716 65.2092 3.79081C64.7028 3.28446 64.0161 3 63.3 3H3M23.925 52.5H14.7C14.3454 52.5 13.9943 52.4302 13.6668 52.2945C13.3392 52.1588 13.0415 51.9599 12.7908 51.7092C12.5401 51.4585 12.3412 51.1608 12.2055 50.8332C12.0698 50.5057 12 50.1546 12 49.8V27.75" stroke="#96C6E2" stroke-width="6" stroke-linecap="round"/>
<path d="M7.5 16.5H25.5" stroke="#96C6E2" stroke-width="6" stroke-linecap="round" stroke-linejoin="round"/>
<path d="M66 16.5H91.245C91.7669 16.5001 92.2776 16.6515 92.7152 16.9358C93.1529 17.2201 93.4988 17.6252 93.711 18.102L101.766 36.228C101.919 36.5722 101.999 36.9447 102 37.3215V49.8C102 50.1546 101.93 50.5057 101.794 50.8332C101.659 51.1608 101.46 51.4585 101.209 51.7092C100.958 51.9599 100.661 52.1588 100.333 52.2945C100.006 52.4302 99.6546 52.5 99.3 52.5H90.75M66 52.5H70.5" stroke="#96C6E2" stroke-width="6" stroke-linecap="round"/>
</svg>
