<svg width="100" height="101" viewBox="0 0 100 101" fill="none" xmlns="http://www.w3.org/2000/svg">
<g clip-path="url(#clip0_86_724)">
<path d="M4.16602 9.16699V24.8337C4.16602 25.3859 4.61373 25.8337 5.16602 25.8337H7.33268C7.88497 25.8337 8.33268 26.2814 8.33268 26.8337V83.167C8.33268 83.7193 7.88497 84.167 7.33268 84.167H5.16602C4.61373 84.167 4.16602 84.6147 4.16602 85.167V99.8337C4.16602 100.386 4.61373 100.834 5.16602 100.834H19.8327C20.385 100.834 20.8327 100.386 20.8327 99.8337V97.667C20.8327 97.1147 21.2804 96.667 21.8327 96.667H78.166C78.7183 96.667 79.166 97.1147 79.166 97.667V99.8337C79.166 100.386 79.6137 100.834 80.166 100.834H94.8327C95.385 100.834 95.8327 100.386 95.8327 99.8337V85.167C95.8327 84.6147 95.385 84.167 94.8327 84.167H92.666C92.1137 84.167 91.666 83.7193 91.666 83.167V26.8337C91.666 26.2814 92.1137 25.8337 92.666 25.8337H94.8327C95.385 25.8337 95.8327 25.3859 95.8327 24.8337V10.167C95.8327 9.61471 95.385 9.16699 94.8327 9.16699H80.166C79.6137 9.16699 79.166 9.61471 79.166 10.167V12.3337C79.166 12.8859 78.7183 13.3337 78.166 13.3337H21.8327C21.2804 13.3337 20.8327 12.8859 20.8327 12.3337V9.16699M20.8327 21.667H78.166C78.7183 21.667 79.166 22.1147 79.166 22.667V24.8337C79.166 25.3859 79.6137 25.8337 80.166 25.8337H82.3327C82.885 25.8337 83.3327 26.2814 83.3327 26.8337V83.167C83.3327 83.7193 82.885 84.167 82.3327 84.167H80.166C79.6137 84.167 79.166 84.6147 79.166 85.167V87.3337C79.166 87.8859 78.7183 88.3337 78.166 88.3337H21.8327C21.2804 88.3337 20.8327 87.8859 20.8327 87.3337V85.167C20.8327 84.6147 20.385 84.167 19.8327 84.167H17.666C17.1137 84.167 16.666 83.7193 16.666 83.167V26.8337C16.666 26.2814 17.1137 25.8337 17.666 25.8337H20.8327M24.9993 30.0003V62.3337C24.9993 62.8859 25.4471 63.3337 25.9993 63.3337H36.4993C37.0516 63.3337 37.4993 63.7814 37.4993 64.3337V79.0003C37.4993 79.5526 37.9471 80.0003 38.4993 80.0003H73.9993C74.5516 80.0003 74.9993 79.5526 74.9993 79.0003V43.5003C74.9993 42.948 74.5516 42.5003 73.9993 42.5003H59.3327C58.7804 42.5003 58.3327 42.0526 58.3327 41.5003V30.0003M33.3327 38.3337H48.9993C49.5516 38.3337 49.9993 38.7814 49.9993 39.3337V54.0003C49.9993 54.5526 49.5516 55.0003 48.9993 55.0003H33.3327M58.3327 50.8337H65.666C66.2183 50.8337 66.666 51.2814 66.666 51.8337V70.667C66.666 71.2193 66.2183 71.667 65.666 71.667H46.8327C46.2804 71.667 45.8327 71.2193 45.8327 70.667V64.3337C45.8327 63.7814 46.2804 63.3337 46.8327 63.3337H58.3327" fill="#96C6E2"/>
</g>
<defs>
<clipPath id="clip0_86_724">
<rect width="100" height="100" fill="white" transform="translate(0 0.5)"/>
</clipPath>
</defs>
</svg>
