<svg width="91" height="121" viewBox="0 0 91 121" fill="none" xmlns="http://www.w3.org/2000/svg">
<path d="M45.5 10.5C40.0694 10.5 35.887 15.031 35.887 20.4488C35.887 23.0385 35.878 25.4675 35.8689 27.2575C35.8606 28.9049 34.5219 30.2327 32.8744 30.2327H26.1946C26.0831 30.2327 25.9737 30.2402 25.8658 30.2527C25.7308 30.2684 25.5953 30.2815 25.4593 30.2815C24.0889 30.2815 22.978 31.3924 22.978 32.7628V36.6626C22.978 38.3194 24.3212 39.6626 25.978 39.6626H65.0219C66.6788 39.6626 68.0219 38.3194 68.0219 36.6626V32.7628C68.0219 31.3924 66.911 30.2815 65.5406 30.2815C65.4047 30.2815 65.2692 30.2684 65.1341 30.2527C65.0262 30.2402 64.9169 30.2327 64.8054 30.2327H58.2305C56.5424 30.2327 55.184 28.8409 55.2094 27.153C55.2352 25.4423 55.2595 23.1257 55.2595 20.4792C55.2595 15.2609 50.9307 10.5 45.5 10.5ZM13.0996 20.0154C11.4428 20.0154 10.0996 21.3586 10.0996 23.0154V107.5C10.0996 109.157 11.4428 110.5 13.0996 110.5H77.9004C79.5572 110.5 80.9004 109.157 80.9004 107.5V23.0154C80.9004 21.3586 79.5572 20.0154 77.9004 20.0154H61.47C59.8132 20.0154 58.47 21.3586 58.47 23.0154V23.5706C58.47 25.2274 59.8132 26.5706 61.47 26.5706H71.4185C73.0754 26.5706 74.4185 27.9137 74.4185 29.5706V100.933C74.4185 102.59 73.0754 103.933 71.4185 103.933H19.5877C17.9308 103.933 16.5877 102.59 16.5877 100.933V29.5706C16.5877 27.9137 17.9308 26.5706 19.5877 26.5706H29.53C31.1869 26.5706 32.53 25.2274 32.53 23.5706V23.0154C32.53 21.3586 31.1869 20.0154 29.53 20.0154H13.0996ZM45.5 20.1374C47.2792 20.1374 48.7166 21.5691 48.7166 23.3418C48.7166 25.1177 47.2792 26.5522 45.5 26.5522C43.7209 26.5522 42.2834 25.1176 42.2834 23.3418C42.2834 21.5692 43.7209 20.1374 45.5 20.1374ZM24.5863 46.0225C23.6998 46.0225 22.978 46.7412 22.978 47.6277C22.978 48.5142 23.6998 49.2329 24.5863 49.2329C25.4728 49.2329 26.1946 48.5142 26.1946 47.6277C26.1946 46.7412 25.4728 46.0225 24.5863 46.0225ZM34.239 46.0835C33.3525 46.0835 32.6338 46.8022 32.6338 47.6887C32.6338 48.5752 33.3525 49.2939 34.239 49.2939H66.4167C67.3033 49.2939 68.0219 48.5752 68.0219 47.6887C68.0219 46.8022 67.3033 46.0835 66.4167 46.0835H34.239ZM24.5863 58.1318C23.6998 58.1318 22.978 58.8505 22.978 59.737C22.978 60.6236 23.6998 61.3423 24.5863 61.3423C25.4728 61.3423 26.1946 60.6236 26.1946 59.737C26.1946 58.8505 25.4728 58.1318 24.5863 58.1318ZM34.2421 58.1928C33.3538 58.1928 32.6338 58.9129 32.6338 59.8011C32.6338 60.6894 33.3538 61.4094 34.2421 61.4094H66.4137C67.3019 61.4094 68.0219 60.6894 68.0219 59.8011C68.0219 58.9129 67.3019 58.1928 66.4137 58.1928H34.2421ZM24.5863 70.2413C23.6998 70.2413 22.978 70.9599 22.978 71.8465C22.978 72.733 23.6998 73.4517 24.5863 73.4517C25.4728 73.4517 26.1946 72.733 26.1946 71.8465C26.1946 70.9599 25.4728 70.2413 24.5863 70.2413ZM34.239 70.3083C33.3525 70.3083 32.6338 71.027 32.6338 71.9135C32.6338 72.8001 33.3525 73.5187 34.239 73.5187H66.4167C67.3033 73.5187 68.0219 72.8001 68.0219 71.9135C68.0219 71.027 67.3033 70.3083 66.4167 70.3083H34.239ZM24.5863 82.3567C23.6998 82.3567 22.978 83.0753 22.978 83.9619C22.978 84.8484 23.6998 85.5671 24.5863 85.5671C25.4728 85.5671 26.1946 84.8484 26.1946 83.9619C26.1946 83.0753 25.4728 82.3567 24.5863 82.3567ZM34.239 82.4238C33.3525 82.4238 32.6338 83.1425 32.6338 84.029C32.6338 84.9156 33.3525 85.6343 34.239 85.6343H66.4167C67.3033 85.6343 68.0219 84.9156 68.0219 84.029C68.0219 83.1425 67.3033 82.4238 66.4167 82.4238H34.239ZM24.5863 94.4661C23.6998 94.4661 22.978 95.1848 22.978 96.0713C22.978 96.9578 23.6998 97.6765 24.5863 97.6765C25.4728 97.6765 26.1946 96.9578 26.1946 96.0713C26.1946 95.1848 25.4728 94.4661 24.5863 94.4661ZM34.239 94.5332C33.3525 94.5332 32.6338 95.2518 32.6338 96.1384C32.6338 97.0249 33.3525 97.7436 34.239 97.7436H66.4167C67.3033 97.7436 68.0219 97.0249 68.0219 96.1384C68.0219 95.2518 67.3033 94.5332 66.4167 94.5332H34.239Z" fill="#96C6E2"/>
</svg>
